<?xml version="1.0" encoding="UTF-8"?>
<svg xmlns="http://www.w3.org/2000/svg" xmlns:xlink="http://www.w3.org/1999/xlink" width="25pt" height="30pt" viewBox="0 0 25 30" version="1.1">
<g id="surface3">
<path style=" stroke:none;fill-rule:nonzero;fill:rgb(74.509804%,74.509804%,74.509804%);fill-opacity:1;" d="M 0 0 C 0 0 25 0 25 0 C 25 0 25 30 25 30 C 25 30 0 30 0 30 C 0 30 0 0 0 0 Z M 0 0 "/>
<path style=" stroke:none;fill-rule:nonzero;fill:rgb(100%,0%,0%);fill-opacity:1;" d="M 24.5 29.5 C 24.5 29.5 25.5 29.5 25.5 29.5 C 25.5 29.5 25.5 30.5 25.5 30.5 C 25.5 30.5 24.5 30.5 24.5 30.5 C 24.5 30.5 24.5 29.5 24.5 29.5 Z M 24.5 29.5 "/>
<path style=" stroke:none;fill-rule:nonzero;fill:rgb(100%,0%,0%);fill-opacity:1;" d="M 24.5 24.5 C 24.5 24.5 25.5 24.5 25.5 24.5 C 25.5 24.5 25.5 25.5 25.5 25.5 C 25.5 25.5 24.5 25.5 24.5 25.5 C 24.5 25.5 24.5 24.5 24.5 24.5 Z M 24.5 24.5 "/>
<path style=" stroke:none;fill-rule:nonzero;fill:rgb(100%,0%,0%);fill-opacity:1;" d="M -0.5 -0.5 C -0.5 -0.5 0.5 -0.5 0.5 -0.5 C 0.5 -0.5 0.5 0.5 0.5 0.5 C 0.5 0.5 -0.5 0.5 -0.5 0.5 C -0.5 0.5 -0.5 -0.5 -0.5 -0.5 Z M -0.5 -0.5 "/>
</g>
</svg>
